<svg xmlns="http://www.w3.org/2000/svg" viewBox="0 0 224.4 230.71"><defs><style>.cls-1{fill:#50b9a5;}.cls-2{fill:#8cccc0;}.cls-3{fill:#3ea38e;}.cls-4{fill:#d4eae7;}</style></defs><g id="Capa_2" data-name="Capa 2"><g id="BLOOM"><g id="POMPA"><path class="cls-1" d="M100.89.44a143.93,143.93,0,0,1,22.17,0c16.18,1.86,31.53,6.43,45.39,15.06,25.46,15.86,42.63,38.22,51.14,67,7.16,24.22,6.23,48.32-2.12,72.1-7,20.06-19,36.74-35.14,50.53a104.56,104.56,0,0,1-52.57,24.07c-29.54,4.64-57-1.35-81.2-19-26.11-19.05-42-44.89-47.06-77.05a112.38,112.38,0,0,1,2-46.26A116.94,116.94,0,0,1,45.41,22.84C59.57,11.69,75.58,5,93.14,1.64,95.71,1.15,98.3.84,100.89.44Zm0,12.58c-4.3-.62-8.69.34-13.06,1.13a73.57,73.57,0,0,0-21.45,7.54c-6.12,3.23-12.15,6.75-17.27,11.44A127.42,127.42,0,0,0,30.74,53.72,94,94,0,0,0,16,86.77a68.12,68.12,0,0,0-1.09,23.83c2.05,16.42,9.26,29.65,23.31,39,8.37,5.56,17.6,7.93,27.37,8.34,8.35.36,16.51-1.32,24.49-3.79a86.31,86.31,0,0,0,27.06-14.58,101.31,101.31,0,0,0,28.13-33.71A89.88,89.88,0,0,0,154,79.49a63.67,63.67,0,0,0,.13-22.24c-1.81-10-5.64-19.19-12.43-27.08a50.09,50.09,0,0,0-17.92-13A46.63,46.63,0,0,0,100.93,13ZM27.11,170.79l-.41.68a3.8,3.8,0,0,0,.3.84,101.41,101.41,0,0,0,15,18.6c4.29,4.18,8.47,8.5,13.51,11.77a108,108,0,0,0,28.18,13.37,112.86,112.86,0,0,0,27.22,4.29,87.79,87.79,0,0,0,17.65-1.41,94.92,94.92,0,0,0,20.41-5.55,92.57,92.57,0,0,0,18.67-10c4-2.77,8.17-5.32,11.41-8.9,3.41-3.76,7.18-7.16,10.39-11.11a103.47,103.47,0,0,0,12.38-18.54A121.21,121.21,0,0,0,209,147.66,98.39,98.39,0,0,0,213,128.79c.85-7.14,1.57-14.35.6-21.59-.61-4.56-1.06-9.14-2-13.65-.8-3.73-1.89-7.37-3-11a100.65,100.65,0,0,0-10.13-22.39,114.51,114.51,0,0,0-18.79-23.24c-1.07-1-2-2.4-3.77-2.73,16,19.84,25.6,42.16,25.52,67.8a99.9,99.9,0,0,1-25.84,67.73c-17.45,19.65-39.7,30.8-65.95,32.91C77.29,205.22,49.63,194.62,27.11,170.79Z"/><path class="cls-2" d="M100.93,13a46.63,46.63,0,0,1,22.89,4.18,50.09,50.09,0,0,1,17.92,13c6.79,7.89,10.62,17,12.43,27.08A63.67,63.67,0,0,1,154,79.49a89.88,89.88,0,0,1-8.77,26.35,101.31,101.31,0,0,1-28.13,33.71,86.31,86.31,0,0,1-27.06,14.58c-8,2.47-16.14,4.15-24.49,3.79-9.77-.41-19-2.78-27.37-8.34-14-9.33-21.26-22.56-23.31-39A68.12,68.12,0,0,1,16,86.77a94,94,0,0,1,14.74-33A127.42,127.42,0,0,1,49.15,33.13c5.12-4.69,11.15-8.21,17.27-11.44a73.57,73.57,0,0,1,21.45-7.54C92.24,13.36,96.63,12.4,100.93,13ZM89.31,26.33A44.82,44.82,0,0,0,70.2,30.84c-9.4,4.69-17.56,10.82-23.82,19.48-3.3,4.55-6.74,9-9.39,13.93-2.18,4.09-4.08,8.31-4,13.09.06,3,2,4.65,5,4.44,2.75-.19,4.41-2,5.77-4.11,3.34-5.25,6.59-10.5,11.1-14.93C63.3,54.41,73,48.41,84.76,46c3.92-.8,8-.44,11.82-1.82,4.82-1.75,6.83-6.42,4.51-10.95C98.3,27.79,93.21,26.61,89.31,26.33ZM24.14,92.42c0,3.87,2.33,6.42,5.93,6.46a6.91,6.91,0,0,0,7-6.54,6.49,6.49,0,0,0-6.13-6.79A6.63,6.63,0,0,0,24.14,92.42Z"/><path class="cls-3" d="M27.11,170.79c22.52,23.83,50.18,34.43,82.57,31.81,26.25-2.11,48.5-13.26,65.95-32.91A99.9,99.9,0,0,0,201.47,102c.08-25.64-9.56-48-25.52-67.8,1.76.33,2.7,1.69,3.77,2.73a114.51,114.51,0,0,1,18.79,23.24,100.65,100.65,0,0,1,10.13,22.39c1.1,3.66,2.19,7.3,3,11,1,4.51,1.4,9.09,2,13.65,1,7.24.25,14.45-.6,21.59A98.39,98.39,0,0,1,209,147.66a121.21,121.21,0,0,1-7.16,17.21,103.47,103.47,0,0,1-12.38,18.54c-3.21,4-7,7.35-10.39,11.11-3.24,3.58-7.44,6.13-11.41,8.9a92.57,92.57,0,0,1-18.67,10,94.92,94.92,0,0,1-20.41,5.55,87.79,87.79,0,0,1-17.65,1.41,112.86,112.86,0,0,1-27.22-4.29,108,108,0,0,1-28.18-13.37c-5-3.27-9.22-7.59-13.51-11.77a101.41,101.41,0,0,1-15-18.6,3.8,3.8,0,0,1-.3-.84Z"/><path class="cls-4" d="M89.31,26.33c3.9.28,9,1.46,11.78,6.91,2.32,4.53.31,9.2-4.51,10.95-3.82,1.38-7.9,1-11.82,1.82C73,48.41,63.3,54.41,54.82,62.74c-4.51,4.43-7.76,9.68-11.1,14.93-1.36,2.13-3,3.92-5.77,4.11-3,.21-4.89-1.47-5-4.44-.09-4.78,1.81-9,4-13.09,2.65-5,6.09-9.38,9.39-13.93C52.64,41.66,60.8,35.53,70.2,30.84A44.82,44.82,0,0,1,89.31,26.33Z"/><path class="cls-4" d="M24.14,92.42a6.63,6.63,0,0,1,6.79-6.87,6.49,6.49,0,0,1,6.13,6.79,6.91,6.91,0,0,1-7,6.54C26.47,98.84,24.13,96.29,24.14,92.42Z"/></g></g></g></svg>